<?xml version="1.0" encoding="UTF-8" standalone="no"?> <svg width="48" height="48" viewBox="0 0 48 48" fill="none" xmlns="http://www.w3.org/2000/svg">
<path d="M23.9998 10.4338C22.8575 9.29091 21.5013 8.38425 20.0085 7.76565C18.5157 7.14706 16.9157 6.82867 15.2998 6.82867C13.6839 6.82867 12.0839 7.14706 10.5911 7.76565C9.09832 8.38425 7.74206 9.29091 6.5998 10.4338V10.4338C5.45687 11.5761 4.5502 12.9324 3.93161 14.4251C3.31302 15.9179 2.99463 17.518 2.99463 19.1338C2.99463 20.7497 3.31302 22.3498 3.93161 23.8425C4.5502 25.3353 5.45687 26.6916 6.5998 27.8338V27.8338L15.2998 36.5338L20.4828 41.7178C21.415 42.6501 22.6794 43.1738 23.9978 43.1738C25.3162 43.1738 26.5806 42.6501 27.5128 41.7178L32.6998 36.5288L41.3998 27.8288C42.5427 26.6866 43.4494 25.3303 44.068 23.8375C44.6866 22.3448 45.005 20.7447 45.005 19.1288C45.005 17.513 44.6866 15.9129 44.068 14.4201C43.4494 12.9274 42.5427 11.5711 41.3998 10.4288V10.4288C40.2572 9.28624 38.9007 8.37996 37.4077 7.7618C35.9148 7.14364 34.3146 6.82571 32.6988 6.82617C31.0829 6.82664 29.4829 7.14549 27.9903 7.76451C26.4977 8.38353 25.1417 9.29058 23.9998 10.4338V10.4338Z" fill="#FD3730"/>
<path d="M30.25 33.5C27.1144 33.5041 24.028 32.7209 21.2739 31.222C18.5198 29.7231 16.1862 27.5566 14.4872 24.9213C12.7881 22.2859 11.7781 19.2661 11.5497 16.1389C11.3213 13.0117 11.8819 9.87718 13.18 7.02295C10.9612 7.40841 8.8909 8.39606 7.19523 9.87808C5.49956 11.3601 4.24366 13.2795 3.56466 15.4267C2.88565 17.574 2.80963 19.8665 3.34491 22.054C3.88019 24.2415 5.00619 26.2399 6.59996 27.8309L15.3 36.5309L20.483 41.715C21.4152 42.6472 22.6796 43.1709 23.998 43.1709C25.3163 43.1709 26.5807 42.6472 27.513 41.715L32.7 36.5289L37 32.229C34.848 33.0665 32.5592 33.4975 30.25 33.5V33.5Z" fill="#D3241F"/>
<path d="M46 26.0001H44.078C45.7082 23.2903 46.3194 20.0883 45.8022 16.9685C45.2849 13.8488 43.673 11.0154 41.2555 8.97675C38.838 6.93807 35.7732 5.82748 32.6109 5.84421C29.4486 5.86095 26.3958 7.00391 24 9.06806C21.6063 6.9938 18.5506 5.84236 15.3833 5.8211C12.2159 5.79984 9.14509 6.91016 6.72374 8.95211C4.3024 10.9941 2.68968 13.8334 2.17603 16.9589C1.66237 20.0844 2.28153 23.2906 3.922 26.0001H2C1.73478 26.0001 1.48043 26.1054 1.29289 26.293C1.10536 26.4805 1 26.7348 1 27.0001C1 27.2653 1.10536 27.5196 1.29289 27.7072C1.48043 27.8947 1.73478 28.0001 2 28.0001H5.408C5.57 28.1801 5.723 28.3661 5.896 28.5381L19.778 42.4201C20.3324 42.9746 20.9906 43.4145 21.715 43.7146C22.4394 44.0147 23.2159 44.1692 24 44.1692C24.7841 44.1692 25.5606 44.0147 26.285 43.7146C27.0094 43.4145 27.6676 42.9746 28.222 42.4201L42.1 28.5381C42.273 28.3661 42.426 28.1801 42.588 28.0001H46C46.2652 28.0001 46.5196 27.8947 46.7071 27.7072C46.8946 27.5196 47 27.2653 47 27.0001C47 26.7348 46.8946 26.4805 46.7071 26.293C46.5196 26.1054 46.2652 26.0001 46 26.0001ZM4 19.1331C4.00152 16.8985 4.66522 14.7145 5.90729 12.8569C7.14935 10.9994 8.91405 9.55158 10.9785 8.69639C13.0429 7.84121 15.3145 7.61702 17.5063 8.05213C19.6981 8.48724 21.7118 9.56214 23.293 11.1411C23.4805 11.3285 23.7348 11.4339 24 11.4339C24.2652 11.4339 24.5195 11.3285 24.707 11.1411C26.7379 9.12716 29.457 7.95831 32.3158 7.87025C35.1745 7.7822 37.9604 8.78149 40.1114 10.6666C42.2624 12.5517 43.6185 15.1823 43.9063 18.028C44.1941 20.8736 43.3921 23.7225 41.662 26.0001H32C31.8 26 31.6046 26.0599 31.439 26.172C31.2734 26.2841 31.1452 26.4433 31.071 26.6291L30.1 29.0511L26.452 17.6941C26.3867 17.4909 26.2581 17.3139 26.085 17.189C25.9119 17.0641 25.7034 16.9979 25.49 17.0001C25.2766 17.0022 25.0694 17.0725 24.8989 17.2008C24.7283 17.3291 24.6032 17.5086 24.542 17.7131L20.909 29.8231L17.94 21.6581C17.8708 21.4677 17.7453 21.3029 17.5803 21.1854C17.4153 21.0679 17.2185 21.0033 17.016 21.0001C16.8139 20.9994 16.6161 21.0588 16.4478 21.1708C16.2795 21.2828 16.1484 21.4423 16.071 21.6291L14.323 26.0001H6.338C4.81898 24.0335 3.99656 21.6179 4 19.1331V19.1331ZM26.808 41.0061C26.0515 41.7281 25.0458 42.131 24 42.131C22.9542 42.131 21.9485 41.7281 21.192 41.0061L8.186 28.0001H15C15.2 28.0001 15.3954 27.9402 15.561 27.8281C15.7266 27.716 15.8548 27.5568 15.929 27.3711L16.956 24.8001L20.056 33.3381C20.1258 33.5324 20.254 33.7003 20.423 33.8188C20.592 33.9373 20.7936 34.0007 21 34.0001H21.029C21.2391 33.994 21.442 33.9218 21.6088 33.7938C21.7756 33.6658 21.8978 33.4885 21.958 33.2871L25.533 21.3701L29.048 32.3061C29.111 32.5019 29.2329 32.6735 29.397 32.7975C29.5611 32.9215 29.7594 32.9919 29.965 32.9991C30.1725 33.0159 30.3798 32.9634 30.5543 32.8498C30.7288 32.7361 30.8606 32.5677 30.929 32.3711L32.677 28.0001H39.814L26.808 41.0061Z" fill="black"/>
</svg>
